<svg width="89" height="105" viewBox="0 0 89 105" fill="none" xmlns="http://www.w3.org/2000/svg">
<path d="M43.2143 0.5H34.5452L28.892 9.91889L6 9.91651L28.9325 45.9996L55.4444 0.5H43.2143ZM28.9206 36.5617L14.4444 14.7493H21.9444L28.9348 25.2695L40.4722 5.25824H47.1609L28.9206 36.5617Z" fill="#00DC82"/>
<path d="M5.5 36.875V17.5L0 10V38C0 42.4183 3.58172 46 8 46H23.5L19.75 40.875H9.5C7.29086 40.875 5.5 39.0841 5.5 36.875Z" fill="white"/>
<path d="M42 32V36.875C42 39.0841 40.2091 40.875 38 40.875H36.5L33.5 46H39C43.4183 46 47 42.4183 47 38V24.5L42 32Z" fill="white"/>
<path d="M57.1098 24.2998V37.2828C57.1098 38.5811 57.4292 39.5806 58.068 40.2813C58.7069 40.982 59.6445 41.3323 60.881 41.3323C62.1175 41.3323 63.0655 40.982 63.7249 40.2813C64.3844 39.5806 64.7141 38.5811 64.7141 37.2828V24.2998H70.0001V37.2519C70.0001 39.1891 69.5879 40.8274 68.7636 42.1669C67.9393 43.5064 66.8264 44.5162 65.4251 45.1963C64.0444 45.8764 62.4988 46.2164 60.7883 46.2164C59.0778 46.2164 57.5425 45.8867 56.1824 45.2272C54.8429 44.5471 53.7816 43.5373 52.9985 42.1978C52.2154 40.8377 51.8238 39.1891 51.8238 37.2519V24.2998H57.1098ZM78.9979 28.5347V32.9242H86.0767V37.0046H78.9979V41.7651H87.0041V46H73.7119V24.2998H87.0041V28.5347H78.9979Z" fill="white"/>
<path d="M10.4514 80.1769H20.4992V86.0979H2.78107V54.609H10.4514V80.1769ZM31.8281 54.609V86.0979H24.1578V54.609H31.8281ZM48.7802 86.4119C46.4776 86.4119 44.4142 86.0381 42.5901 85.2905C40.7659 84.5429 39.3006 83.4364 38.1942 81.9711C37.1176 80.5059 36.5495 78.7415 36.4897 76.6781H44.6534C44.7731 77.8444 45.1768 78.7415 45.8646 79.3695C46.5523 79.9676 47.4495 80.2666 48.5559 80.2666C49.6923 80.2666 50.5894 80.0124 51.2473 79.5041C51.9052 78.9658 52.2341 78.2331 52.2341 77.3061C52.2341 76.5286 51.965 75.8857 51.4267 75.3773C50.9183 74.8689 50.2754 74.4503 49.4979 74.1213C48.7503 73.7924 47.6737 73.4186 46.2683 72.9999C44.2348 72.372 42.5751 71.744 41.2892 71.116C40.0034 70.488 38.8969 69.561 37.9699 68.3349C37.0429 67.1089 36.5794 65.509 36.5794 63.5353C36.5794 60.6047 37.641 58.3171 39.7641 56.6724C41.8873 54.9977 44.6534 54.1604 48.0625 54.1604C51.5314 54.1604 54.3274 54.9977 56.4506 56.6724C58.5738 58.3171 59.7101 60.6197 59.8596 63.5802H51.5613C51.5015 62.5635 51.1277 61.771 50.4399 61.2028C49.7521 60.6047 48.8699 60.3057 47.7934 60.3057C46.8663 60.3057 46.1187 60.5599 45.5506 61.0683C44.9824 61.5467 44.6983 62.2495 44.6983 63.1765C44.6983 64.1932 45.1768 64.9857 46.1337 65.5539C47.0906 66.122 48.5858 66.7351 50.6193 67.3929C52.6528 68.0807 54.2975 68.7386 55.5535 69.3666C56.8393 69.9946 57.9458 70.9067 58.8728 72.1028C59.7998 73.299 60.2633 74.839 60.2633 76.723C60.2633 78.5172 59.7998 80.147 58.8728 81.6123C57.9757 83.0776 56.6599 84.2439 54.9255 85.1111C53.191 85.9783 51.1426 86.4119 48.7802 86.4119ZM87.636 54.609V60.7543H79.2928V86.0979H71.6224V60.7543H63.2792V54.609H87.636Z" fill="white"/>
</svg>
